<svg id="Farbversion_bearbeitbare_Schriftebene" data-name="Farbversion + bearbeitbare Schriftebene" xmlns="http://www.w3.org/2000/svg" viewBox="0 0 266.54 51.2"><defs><style>.cls-1{fill:#666;}.cls-2{fill:#0098cb;}.cls-3{fill:#008c58;}.cls-4{fill:#17460d;}.cls-5{fill:#0cbab3;}</style></defs><title>MPICBS-Logo-color-RGB-en</title><g id="Minerva_neu" data-name="Minerva neu"><path class="cls-1" d="M25.6,0A25.6,25.6,0,1,0,51.2,25.6,25.62,25.62,0,0,0,25.6,0Zm0,50.48A24.88,24.88,0,1,1,50.48,25.6,24.91,24.91,0,0,1,25.6,50.48Z"/><path class="cls-1" d="M40.62,23.64c-.36-.74-.11-1.23-.22-1.77s-.67-1.71-1-2.62c-.18-.43.92-.33.11-1.88,0,0,1.12-.47,0-1.34A6.57,6.57,0,0,1,38,14.4c0-.07-.09-.22,0-.31a1.08,1.08,0,0,0,0-1.84c-.51-.3-1.09,0-1.63.36-.18.11-.27.18-.45.11a3.33,3.33,0,0,1-.44-.28,2,2,0,0,0,.74-1.38,3.54,3.54,0,0,0-2.47.24l-.1-.05a1.69,1.69,0,0,0,.2-1.68h0a19.27,19.27,0,0,1,3-3.25l0,0c.06-.07.09-.14,0-.22l-.26-.15A22.52,22.52,0,0,0,3.1,25.6,23,23,0,0,0,12.71,44a3.26,3.26,0,0,0,.67.4.2.2,0,0,0,.26-.05l.09-.11a.33.33,0,0,0,.08-.21c0-.16-.24-.31-.52-.72a6.84,6.84,0,0,1-1.16-3.7,5.35,5.35,0,0,1,1.11-3.32c.9.94,2.86,2.66,2.81,4.22,0,1.76-1.69,1.67-1.33,3,.22.83.84.49.94,1.12A2.42,2.42,0,0,0,18,46.32c.15,0,.28.11.59.42s1.5.38,2,.29,1,.33,2,.23c1.18-.13,1.48-.22,2-.23a60.73,60.73,0,0,1,8.79.44c.57.08.75-.17.49-.62a7,7,0,0,1-.67-6.08,7.62,7.62,0,0,0,5.28-1,2.74,2.74,0,0,0,1.24-2.32,5.77,5.77,0,0,1-.12-1.65c.18-.66.31-.64.5-.78.88-.62.24-1.11.11-1.16a.81.81,0,0,0,.25-1.12c-.16-.17-.64-1.51-.09-1.79s1.28-.44,2-.74a1.11,1.11,0,0,0,.58-1.48C42.47,27.89,40.67,23.76,40.62,23.64Zm-24.84,20c-.17,0-.73.06-.6-.67a.51.51,0,0,1,.81-.38C15.94,43,15.82,43.31,15.78,43.67ZM37,13c.29-.18.6-.26.79-.08.64.64-.7,1-.42,1.48a7.56,7.56,0,0,0,1.82,2.05c.3.23.34.75-.8,1s-5.77,1.45-8.2,4c-3,3.22-5,7.39-5.23,6.82s-.88-.67-.78-.84A51.89,51.89,0,0,1,37,13Zm2,5.29c-.25.72-2.23,1.36-2.14.85,0-.23,0-.52.16-.55s.84-.26,1.82-.51C38.93,18,39.05,18.07,39,18.25Zm-5,1.3c-.05-.29,2.08-1,2.16-.79A1.94,1.94,0,0,1,35,20.46c-.81.3-1.15.21-1.12.1A3,3,0,0,0,34,19.55ZM29,30.67c-1,.6-1.51-.54-1.65-.74a1,1,0,0,1-.13-.78,6.16,6.16,0,0,0-.1-2.26c-.1-.65,1.23-2.25,1.53-2.52s.77.14.8.61a1.92,1.92,0,0,1-1,1.75c-.63.47-.75,1.08-.63,1.25s.32.06.45-.2c.38-.81,1.47-1.22,1.64-1.64a2.13,2.13,0,0,0,0-1.37c0-.24.22-.3.4-.27s.33.35.45.65c.7,1.83-1.07,2.94-1.35,3.37C29.37,28.72,29.77,30.21,29,30.67Zm1.48-7.09c-.53.36-1.28-.13-1.13-.34a10.39,10.39,0,0,1,2.8-2.69c.83-.52.92-.56,1-.26a2.48,2.48,0,0,1-.63,1.82,2,2,0,0,1-1.41.63C30.88,22.79,30.9,23.3,30.49,23.58ZM25.8,29.82c-.25-.05-.34-.52-.29-.71a7.16,7.16,0,0,1,1-1.57c.05-.07.17,0,.18.09C26.81,28.62,26.67,30,25.8,29.82Zm7.84-18.07a4.38,4.38,0,0,1,1.82-.39c.2,0-.44,1.17-1.59,1.66a5.17,5.17,0,0,1-2.17.55C31.54,13.5,32.7,12.17,33.64,11.75ZM13.33,30.83c-.35-.41-.67-.63-.71-.6a5.28,5.28,0,0,0-.86,2.18A15.52,15.52,0,0,1,9.93,25.6C9.59,17,16.82,10,25.64,10.05a13.86,13.86,0,0,1,5.47,1.11,6.52,6.52,0,0,0-.89,1.62c0-.47-.13-.83-.1-1.12s-1.25.21-2.38,2a4.32,4.32,0,0,0-.52,1.3A3,3,0,0,0,27,13.78a3.93,3.93,0,0,0-2.08,2.14,5.4,5.4,0,0,0-.26.84,1.77,1.77,0,0,0-.22-.8,3.82,3.82,0,0,0-2.1,2.18,3.94,3.94,0,0,0-.28,1.11c-.12-.56-.33-.9-.4-.82-.47.6-1.38.86-1.86,2.35a3.46,3.46,0,0,0-.17,1c-.2-.5-.48-.79-.55-.78a5.05,5.05,0,0,0-1.71,2.65,4.08,4.08,0,0,0,0,1.41,5.77,5.77,0,0,1-.75-1.17,3.69,3.69,0,0,0-1.42,2.62A5,5,0,0,0,15.41,28c-.39-.71-.94-1-1-1a4.49,4.49,0,0,0-1.17,2.69A3,3,0,0,0,13.33,30.83ZM31.39,11.4a4.45,4.45,0,0,1,2-1.4,3.11,3.11,0,0,1-1,2.1,8,8,0,0,1-2.09,1.49A4.84,4.84,0,0,1,31.39,11.4Zm-2.25,3.18a5.34,5.34,0,0,0-1.37,1.55c-.14.22-.46-1.21.41-2.59a4.72,4.72,0,0,1,1.58-1.49C29.69,12.38,30.28,13.66,29.14,14.58Zm-2.47,1.83c-.82,1.23-.87.81-1.77,2a5.88,5.88,0,0,1,.25-2.29,4,4,0,0,1,1.52-1.82A2.46,2.46,0,0,1,26.67,16.41ZM24,18.87c-.42.74-.81.57-1.51,1.62-.08.12-.27-.87.15-2.2a3.25,3.25,0,0,1,1.45-1.69A2.6,2.6,0,0,1,24,18.87Zm-2.51,2.61A4.67,4.67,0,0,1,20.25,23c-.09.11-.46-.89-.1-2.14a3.59,3.59,0,0,1,1.28-1.71C21.56,19.05,21.92,20.48,21.46,21.48Zm-2.05,1.61a2.27,2.27,0,0,1-.11.73,5.52,5.52,0,0,1-1.27,2,3.15,3.15,0,0,1-.39-1.43,3.58,3.58,0,0,1,1.26-2.71C19.09,21.65,19.41,22.43,19.41,23.09Zm-2.08,3.12a3.7,3.7,0,0,1-1.24,2.64A4.35,4.35,0,0,1,15.56,27a2.83,2.83,0,0,1,.86-2.38C16.55,25.06,17.34,25.41,17.33,26.21Zm-2.95,1.53a2.22,2.22,0,0,1,1,2A2.81,2.81,0,0,1,14.27,32c-.22-.89-.65-1.07-.65-2A4.6,4.6,0,0,1,14.38,27.74Zm1.78,3.06a4.82,4.82,0,0,1,2.39-.37,3.13,3.13,0,0,1-1.45,2,3.62,3.62,0,0,1-2.41.49A2.9,2.9,0,0,1,16.16,30.8ZM16.07,30a3.68,3.68,0,0,1,1.73-2h0a4.71,4.71,0,0,1,2.28-.36c.14.06-.41,1.37-1.41,1.85S17.09,29.64,16.07,30Zm1.68-2.87a5.09,5.09,0,0,1,1.81-2,4.4,4.4,0,0,1,2.17-.33,3.06,3.06,0,0,1-1.52,1.86A4.54,4.54,0,0,1,17.75,27.1Zm2.17-2.92a5.81,5.81,0,0,1,2-2,3.7,3.7,0,0,1,2-.25,2.74,2.74,0,0,1-1.56,1.82A5.67,5.67,0,0,1,19.92,24.18Zm2.61-2.88a4.22,4.22,0,0,1,1.8-1.91,4.06,4.06,0,0,1,2.17,0c.23,0-.32,1.1-1.62,1.58A5.08,5.08,0,0,1,22.53,21.3Zm2.93-2.78a4.88,4.88,0,0,1,2-1.77,4.35,4.35,0,0,1,2.23-.06,3,3,0,0,1-1.89,1.61A5.41,5.41,0,0,1,25.46,18.52Zm2.95-2.4c-.13-.09,1-1.39,2-1.75a4.28,4.28,0,0,1,2-.25,3.24,3.24,0,0,1-1.73,1.64A4.51,4.51,0,0,1,28.41,16.12ZM12.24,42.75A22.09,22.09,0,0,1,3.82,25.6,21.77,21.77,0,0,1,35.7,6.3a.1.1,0,0,1,0,.16,23.57,23.57,0,0,0-2.48,2.78A18.05,18.05,0,0,0,7.54,25.6a17.56,17.56,0,0,0,4.35,11.74,5.79,5.79,0,0,0-.46,2.3A6.24,6.24,0,0,0,12.24,42.75Zm0-6.06h0a16.86,16.86,0,0,1-4-11.1A17.36,17.36,0,0,1,25.6,8.26a17.17,17.17,0,0,1,7.21,1.57,4.59,4.59,0,0,0-1,.63A15.49,15.49,0,0,0,25.6,9.22,16.4,16.4,0,0,0,9.22,25.6a15.65,15.65,0,0,0,3.61,10.25Zm.86-1.36a3.32,3.32,0,0,1-1.07-2s0-.09,0-.14a4.69,4.69,0,0,1,.58-2.2A2.39,2.39,0,0,1,14,33.08,3.51,3.51,0,0,1,13.14,35.33Zm1.95-1.76a4,4,0,0,1,2.27-.27,3.78,3.78,0,0,1-1.51,2,3,3,0,0,1-2.14.32C14.28,34.94,14.16,34,15.09,33.57ZM16.37,44.9a2.59,2.59,0,0,1,.12-1.77c.42-.2,1.2-.28,1.21,0a6.62,6.62,0,0,0,.07,2.49C17.69,45.77,16.64,45.69,16.37,44.9Zm.07-2.7c-.09-.48.38-1,.37-2,0-1.3-1.61-3.07-2.69-4.21A4.59,4.59,0,0,0,16,35.52,3.87,3.87,0,0,0,18,33a2.52,2.52,0,0,0-.91-.11l.18-.09a3.78,3.78,0,0,0,1.91-2.71,3.7,3.7,0,0,0-1-.06l.48-.18a3.54,3.54,0,0,0,2.07-2.58,3.24,3.24,0,0,0-.85-.1c.15-.06.3-.12.46-.2a3.79,3.79,0,0,0,2-2.51,2.47,2.47,0,0,0-.8-.09,6.38,6.38,0,0,0,1.1-.36,3.55,3.55,0,0,0,2.09-2.34,2.13,2.13,0,0,0-.72-.14,9.76,9.76,0,0,0,1.06-.3,3.37,3.37,0,0,0,2.16-2.1c-.22,0-.52-.13-.9-.2a5.56,5.56,0,0,0,1.59-.32c1.74-.59,2.36-1.64,2.39-2.09a1.36,1.36,0,0,0-.55-.2A6,6,0,0,0,30.9,16a4.67,4.67,0,0,0,2.36-2.39c.29-.1.61-.22.94-.37l.47-.24.4.27c.24.16.33.19.21.3A61.79,61.79,0,0,0,23.79,27.14c-.05.08-.15.07-.3.06-1.94-.13-3,2.18-2.17,4.34a4.78,4.78,0,0,1-1.1,1.35c-.07.06-.25.33.06.3s1-.76,1.31-1.09c.11.15.54.5.33.7a15.17,15.17,0,0,1-3.4,2.55c-.62.3,1,.51,3.83-2,.17-.14.36.59.61.9-.48,1.59.71,4.66.52,5.63a.7.7,0,0,1-.69.65c-2.78.06-3.05-.07-4.46.35-.66.19-.49.63,0,.5s1.11-.37,4.12-.18c.73,0,1.57-.15,1.58-1.39s-.89-4.49-.59-4.94a1.52,1.52,0,0,0,.84.33c0,1.1,1.72,4.64.94,6.59-.29.72-1.57.67-3.76.45C17.72,41.84,16.51,42.65,16.44,42.2ZM25,44.61a1.37,1.37,0,0,1-1.79-1.56c.15-.22,1.06.25,1.77-.21C25.53,42.49,25.84,44.32,25,44.61Zm-6.58,1.06c-.21-.9-.29-2.45.09-2.8.07-.07,1.19-.23,1.16,0-.08,1.07-.51,2.26.3,3.45C20.28,46.8,18.69,46.87,18.42,45.67Zm2.76,1c-.39-.09-1.46-1.8-.59-3.84.1-.22,1.44-.09,1.66,0s-.18,1.67,1.66,2.38C24.09,45.29,23.9,47.37,21.18,46.69ZM32.7,41c-.62,2.16-.94,3,0,5.36.12.31.22.54-.06.5-1.88-.33-2.29-.63-8.2-.13-.43,0,.14-.83.07-1.41a1.7,1.7,0,0,0,1.59-1.2c.22-1.07-.53-1.85-.45-2,.84-1.64,0-3.45-.76-6.49-.07-.28.1-.41.22-.27,3.8,4.11,6.22,4.93,7.53,5.32C32.77,40.71,32.75,40.85,32.7,41Zm9.72-11.23c-.8.7-2,.76-2.51,1.21-.26.24-.37.6-.1,1.26.16.38.27.43-.27.57-.89.24-1,1.4-2.13,1.19-.45-.09-.13.2,0,.22a1.22,1.22,0,0,0,1.13-.34,3.1,3.1,0,0,1,.87-.72c.36-.14.72-.13.73.14s-.45.53-.64.62c.23.12.94.48.33.88s-1.11-.12-1.2-.17-.41,0-.32.06c.35.43,1.28.32,1.11.54-.86,1.16-.16,1.84-.42,3s-1.88,1.82-3.13,2.05c-4.23.76-8.35-2.84-10.76-5.55.22-.52.19-1.19,0-.95s-.17.6-.67.73c-1,.24-1.39-1.44-1.69-1.74a3.61,3.61,0,0,1-.94-4.21,1.55,1.55,0,0,1,2.77-.28c.74,1.08.4,1.7.81,2a1.24,1.24,0,0,0,1.34,0c.44-.12.41,1.05,1.93,1s1.45-2.6,1.68-2.83c2.1-2.05,1-3.87.65-4.3-.11-.11.23-.86.35-.89a3.2,3.2,0,0,0,2.31-1.89,3.38,3.38,0,0,0,2.77-1.51c.2-.4.8.38,2.17-.7a.22.22,0,0,1,.36.08c.87,2.16,1.24,2.75,1.18,3.85-.05.8,2.13,5.23,2.29,5.62S42.62,29.58,42.42,29.76Z"/><path class="cls-1" d="M37.49,22c-1.19.05-2.58,1.51-3,1.71s-.3.35,0,.24A27.54,27.54,0,0,1,37,22.36c.92-.33.86.43,1.21.38C38.41,22.72,38.18,21.93,37.49,22Z"/><path class="cls-1" d="M37.76,23.12c-.1,0,.1.53-.41.56-1.13.07-2,1.13-2.7,1.45a3,3,0,0,1-.92.34.08.08,0,0,0,0,.15c2.85.39,4,.28,4,.18s-.15-.3-.11-.42a2.61,2.61,0,0,0,0-1.34c-.06-.19.42-.06.42-.33S37.93,23.08,37.76,23.12Zm-.44,2.26c0,.22-1.33.12-2,.06-.17,0-.45,0,.08-.36a5.13,5.13,0,0,1,1.74-.81.18.18,0,0,1,.21.15A2.18,2.18,0,0,1,37.32,25.38Z"/><path class="cls-1" d="M41.05,29.44a5.36,5.36,0,0,0-1.43.61c-.19.13-1.08.68-1-.2,0-.3.22-1.06.22-1.27s-.26-.19-.27,0a8.1,8.1,0,0,1-.19,1.28.61.61,0,0,0,.9.67A7.3,7.3,0,0,1,41,29.7C41.17,29.67,41.2,29.45,41.05,29.44Z"/><path class="cls-1" d="M24.5,32.57c-.17-.07-.12.28-.35.24s0-.32-.44-.73c-.19-.2-.68-.29-1-.87-.57-.91-.08-2.94.76-2.65.46.17.38,1.24.24,2-.09.45.61.67.67.51s-.25-.23-.34-.47.86-1.85-.43-2.28c-.93-.32-1.55.86-1.44,2.17a1.92,1.92,0,0,0,1.25,1.71c.56.21.14,1,.9,1C24.62,33.16,24.69,32.64,24.5,32.57Z"/><path class="cls-1" d="M32,8.14a.08.08,0,0,0,.11,0l1.59-2a.1.1,0,0,0,0-.15l-.27-.11a.13.13,0,0,0-.12,0l-1.59,2a.09.09,0,0,0,0,.15Z"/><path class="cls-1" d="M29.06,7.33l.28,0a.11.11,0,0,0,.11-.06L30.38,5a.09.09,0,0,0-.07-.13L30,4.82a.07.07,0,0,0-.07,0L29,7.19A.11.11,0,0,0,29.06,7.33Z"/><path class="cls-1" d="M25.79,7h.28a.1.1,0,0,0,.1-.09l.23-2.44a.1.1,0,0,0-.1-.11H26a.11.11,0,0,0-.11.09L25.7,6.9A.09.09,0,0,0,25.79,7Z"/><path class="cls-1" d="M22.61,7.24l.28,0A.1.1,0,0,0,23,7.08l-.46-2.4a.1.1,0,0,0-.12-.08l-.27,0a.1.1,0,0,0-.08.12l.46,2.4A.09.09,0,0,0,22.61,7.24Z"/><path class="cls-1" d="M19.37,8a.09.09,0,0,0,.12,0l.26-.09a.09.09,0,0,0,.06-.13L18.71,5.6a.09.09,0,0,0-.12,0l-.27.09a.1.1,0,0,0-.05.14Z"/><path class="cls-1" d="M16.33,9.39a.13.13,0,0,0,.13,0l.24-.14a.1.1,0,0,0,0-.15L15.08,7.24a.08.08,0,0,0-.12,0l-.24.14a.1.1,0,0,0,0,.15Z"/><path class="cls-1" d="M13.52,11.38a.11.11,0,0,0,.12,0l.22-.18a.1.1,0,0,0,0-.16L11.77,9.59a.09.09,0,0,0-.12,0l-.22.19a.1.1,0,0,0,0,.16Z"/><path class="cls-1" d="M11.06,13.91a.09.09,0,0,0,.11,0,2,2,0,0,1,.19-.22.1.1,0,0,0,0-.16l-2.4-.93a.09.09,0,0,0-.11,0l-.18.23a.1.1,0,0,0,0,.15Z"/><path class="cls-1" d="M6.54,16.53l2.56.35a.09.09,0,0,0,.1-.05,2.15,2.15,0,0,0,.14-.26.09.09,0,0,0-.07-.14l-2.58-.36a.09.09,0,0,0-.1.05c0,.09-.09.18-.13.26A.11.11,0,0,0,6.54,16.53Z"/><path class="cls-1" d="M5.13,20.41l2.62-.25a.08.08,0,0,0,.08-.07c0-.09.06-.19.1-.28a.1.1,0,0,0-.11-.13l-2.63.25a.08.08,0,0,0-.08.07c0,.1-.06.19-.08.29A.09.09,0,0,0,5.13,20.41Z"/><path class="cls-1" d="M7.12,23.52c0-.1,0-.2,0-.3A.11.11,0,0,0,7,23.11L4.48,24a.08.08,0,0,0-.07.08c0,.1,0,.2,0,.3a.1.1,0,0,0,.13.1l2.53-.88A.1.1,0,0,0,7.12,23.52Z"/><path class="cls-1" d="M7.06,27l0-.31a.1.1,0,0,0-.15-.08L4.57,28.12a.1.1,0,0,0,0,.1c0,.1,0,.2,0,.31a.09.09,0,0,0,.15.06L7,27.09A.11.11,0,0,0,7.06,27Z"/><path class="cls-1" d="M7.63,30.48c0-.11,0-.21-.08-.32a.1.1,0,0,0-.17,0L5.5,32.18a.12.12,0,0,0,0,.1l.11.3a.1.1,0,0,0,.17,0l1.85-2A.1.1,0,0,0,7.63,30.48Z"/><path class="cls-1" d="M8.59,33.57,7.27,36.09a.07.07,0,0,0,0,.09l.17.28a.1.1,0,0,0,.17,0L8.92,34a.12.12,0,0,0,0-.1l-.15-.3A.1.1,0,0,0,8.59,33.57Z"/><path class="cls-1" d="M10.45,36.4a.09.09,0,0,0-.17,0l-.71,2.93a.1.1,0,0,0,0,.09l.22.25a.1.1,0,0,0,.17,0l.71-2.89a.11.11,0,0,0,0-.08Z"/></g><path class="cls-1" d="M66.18,10.81l2.65,7.54,2.64-7.54h2.79v10.4H72.13V18.37l.21-4.91-2.78,7.75H68.1l-2.78-7.74.21,4.9v2.84H63.41V10.81Z"/><path class="cls-1" d="M82.45,19.07H78.72L78,21.21H75.75l3.85-10.4h2l3.86,10.4H83.17ZM79.3,17.33h2.58l-1.3-3.89Z"/><path class="cls-1" d="M90.46,14.4l1.94-3.59h2.44l-3,5.16,3.08,5.24H92.45l-2-3.64-2,3.64H86L89.09,16l-3-5.16h2.45Z"/><path class="cls-1" d="M102.49,17.55v3.66h-2.13V10.81h4a4.85,4.85,0,0,1,1.63.26,3.43,3.43,0,0,1,1.22.72,3,3,0,0,1,.76,1.09,3.45,3.45,0,0,1,.26,1.37,3.35,3.35,0,0,1-.26,1.37,2.77,2.77,0,0,1-.76,1,3.33,3.33,0,0,1-1.22.66,5.13,5.13,0,0,1-1.63.24Zm0-1.74h1.9a2.57,2.57,0,0,0,.78-.11,1.58,1.58,0,0,0,.54-.32,1.32,1.32,0,0,0,.31-.49,2.06,2.06,0,0,0,.1-.62,2.32,2.32,0,0,0-.1-.65,1.57,1.57,0,0,0-.31-.55,1.54,1.54,0,0,0-.54-.38,1.87,1.87,0,0,0-.78-.14h-1.9Z"/><path class="cls-1" d="M112.23,19.49h4.51v1.72H110.1V10.81h2.13Z"/><path class="cls-1" d="M124.3,19.07h-3.73l-.71,2.14H117.6l3.84-10.4h2l3.87,10.4H125Zm-3.15-1.74h2.58l-1.3-3.89Z"/><path class="cls-1" d="M137,21.21h-2.13l-4.14-6.84v6.84h-2.12V10.81h2.12l4.15,6.86V10.81H137Z"/><path class="cls-1" d="M147.35,17.75A4.23,4.23,0,0,1,147,19.2a3.27,3.27,0,0,1-.82,1.14,3.72,3.72,0,0,1-1.27.75,5.3,5.3,0,0,1-1.71.26,4.42,4.42,0,0,1-1.78-.34,3.69,3.69,0,0,1-1.34-1,4.38,4.38,0,0,1-.84-1.57,6.74,6.74,0,0,1-.3-2.08v-.68a6.45,6.45,0,0,1,.31-2.08A4.53,4.53,0,0,1,140.1,12a3.72,3.72,0,0,1,1.35-1,4.4,4.4,0,0,1,1.77-.35,4.93,4.93,0,0,1,1.7.27,3.62,3.62,0,0,1,1.26.77,3.28,3.28,0,0,1,.81,1.16,5,5,0,0,1,.37,1.47h-2.13a2.84,2.84,0,0,0-.16-.82,1.61,1.61,0,0,0-.35-.6,1.49,1.49,0,0,0-.61-.37,2.86,2.86,0,0,0-.89-.12,1.82,1.82,0,0,0-1.61.78,4.53,4.53,0,0,0-.52,2.45v.7a8.45,8.45,0,0,0,.11,1.42,3,3,0,0,0,.37,1,1.72,1.72,0,0,0,.65.61,2.07,2.07,0,0,0,1,.2,2.79,2.79,0,0,0,.87-.11,1.53,1.53,0,0,0,.61-.35,1.58,1.58,0,0,0,.38-.58,2.7,2.7,0,0,0,.17-.81Z"/><path class="cls-1" d="M152.35,17l-1.1,1.2v3h-2.13V10.81h2.13v4.72l.93-1.3,2.63-3.42h2.62l-3.67,4.62,3.77,5.78H155Z"/><path class="cls-1" d="M165,21.21h-2.12V10.81H165Z"/><path class="cls-1" d="M175.7,21.21h-2.12l-4.14-6.84v6.84h-2.13V10.81h2.13l4.14,6.86V10.81h2.12Z"/><path class="cls-1" d="M183.29,18.48a1.53,1.53,0,0,0-.08-.49.92.92,0,0,0-.3-.4,2.47,2.47,0,0,0-.62-.36,8.85,8.85,0,0,0-1-.38,13.87,13.87,0,0,1-1.34-.52,5,5,0,0,1-1.1-.67,3,3,0,0,1-.74-.9,2.48,2.48,0,0,1-.28-1.18,2.61,2.61,0,0,1,.28-1.19,2.68,2.68,0,0,1,.79-.92,3.9,3.9,0,0,1,1.21-.59,5.24,5.24,0,0,1,1.53-.21,4.82,4.82,0,0,1,1.56.24,3.49,3.49,0,0,1,1.2.67,2.9,2.9,0,0,1,.76,1,3.11,3.11,0,0,1,.27,1.29H183.3a1.64,1.64,0,0,0-.11-.6,1.21,1.21,0,0,0-.31-.48,1.33,1.33,0,0,0-.53-.31,2.19,2.19,0,0,0-.75-.11,2.6,2.6,0,0,0-.73.09,1.36,1.36,0,0,0-.51.26,1,1,0,0,0-.31.38,1.1,1.1,0,0,0-.1.47,1,1,0,0,0,.52.86,6,6,0,0,0,1.53.65,9.5,9.5,0,0,1,1.48.59,4.17,4.17,0,0,1,1.07.72,2.72,2.72,0,0,1,.65.92,3.05,3.05,0,0,1,0,2.37,2.44,2.44,0,0,1-.76.9,3.41,3.41,0,0,1-1.18.57,5.65,5.65,0,0,1-1.54.19,5.86,5.86,0,0,1-1-.09,4.58,4.58,0,0,1-1-.27,4.74,4.74,0,0,1-.86-.46,3.6,3.6,0,0,1-.69-.66,3.08,3.08,0,0,1-.46-.86,3.29,3.29,0,0,1-.16-1.07h2.13a1.94,1.94,0,0,0,.15.8,1.37,1.37,0,0,0,.41.53,1.65,1.65,0,0,0,.64.3,3.61,3.61,0,0,0,.84.09,2.63,2.63,0,0,0,.72-.09,1.55,1.55,0,0,0,.5-.24,1,1,0,0,0,.29-.38A1,1,0,0,0,183.29,18.48Z"/><path class="cls-1" d="M195,12.55h-3.16v8.66h-2.13V12.55H186.6V10.81H195Z"/><path class="cls-1" d="M198.86,21.21h-2.13V10.81h2.13Z"/><path class="cls-1" d="M208.77,12.55h-3.16v8.66h-2.13V12.55h-3.12V10.81h8.41Z"/><path class="cls-1" d="M218.17,10.81v6.87a3.87,3.87,0,0,1-.3,1.58,3.26,3.26,0,0,1-.82,1.16,3.55,3.55,0,0,1-1.25.7,5.61,5.61,0,0,1-3.18,0,3.55,3.55,0,0,1-1.25-.7,3.26,3.26,0,0,1-.82-1.16,4,4,0,0,1-.29-1.58V10.81h2.12v6.87a2,2,0,0,0,.49,1.48,2.16,2.16,0,0,0,2.69,0,2,2,0,0,0,.47-1.48V10.81Z"/><path class="cls-1" d="M228.06,12.55H224.9v8.66h-2.13V12.55h-3.12V10.81h8.41Z"/><path class="cls-1" d="M235.86,16.7h-4.09v2.79h4.79v1.72h-6.91V10.81h6.9v1.74h-4.78V15h4.09Z"/><path class="cls-1" d="M66.85,31H64.1v2.91h-.86V27.3h4.05V28H64.1v2.25h2.75Z"/><path class="cls-1" d="M73.59,30.81a4.23,4.23,0,0,1-.19,1.33,2.91,2.91,0,0,1-.52,1,2.21,2.21,0,0,1-.83.63A2.51,2.51,0,0,1,71,34a2.45,2.45,0,0,1-1.06-.22,2.17,2.17,0,0,1-.84-.63,2.94,2.94,0,0,1-.54-1,4.22,4.22,0,0,1-.2-1.33v-.42a4.27,4.27,0,0,1,.2-1.33,3.09,3.09,0,0,1,.54-1,2.35,2.35,0,0,1,.83-.63A2.61,2.61,0,0,1,71,27.21a2.67,2.67,0,0,1,1.08.22,2.26,2.26,0,0,1,.83.63,2.9,2.9,0,0,1,.53,1,4.27,4.27,0,0,1,.19,1.33Zm-.86-.43a4.07,4.07,0,0,0-.12-1,2.31,2.31,0,0,0-.34-.76,1.54,1.54,0,0,0-.56-.46A1.65,1.65,0,0,0,71,28a1.6,1.6,0,0,0-.73.16,1.54,1.54,0,0,0-.56.46,2.32,2.32,0,0,0-.35.76,3.65,3.65,0,0,0-.13,1v.43a3.65,3.65,0,0,0,.13,1,2.29,2.29,0,0,0,.36.77,1.54,1.54,0,0,0,.56.46,1.6,1.6,0,0,0,.73.16,1.65,1.65,0,0,0,.75-.16,1.43,1.43,0,0,0,.55-.46,2.28,2.28,0,0,0,.35-.77,4.61,4.61,0,0,0,.11-1Z"/><path class="cls-1" d="M77.52,31.22H76v2.67h-.86V27.3h2.16a2.54,2.54,0,0,1,1.7.51,2,2,0,0,1,.27,2.55,2,2,0,0,1-.92.68l1.53,2.8v0h-.92ZM76,30.51h1.33a1.87,1.87,0,0,0,.61-.09,1.35,1.35,0,0,0,.44-.26,1.11,1.11,0,0,0,.26-.39,1.3,1.3,0,0,0,.09-.49,1.6,1.6,0,0,0-.08-.51,1.07,1.07,0,0,0-.71-.66,2,2,0,0,0-.64-.09H76Z"/><path class="cls-1" d="M88.56,33.89h-.87V30.84H84.4v3.05h-.86V27.3h.86v2.83h3.29V27.3h.87Z"/><path class="cls-1" d="M94.93,27.3v4.46a2.32,2.32,0,0,1-.19,1,2.1,2.1,0,0,1-.52.69,2.23,2.23,0,0,1-.76.41,3,3,0,0,1-.9.14,3,3,0,0,1-.93-.14,2.1,2.1,0,0,1-.75-.41,2,2,0,0,1-.5-.69,2.48,2.48,0,0,1-.18-1V27.3h.85v4.46a1.92,1.92,0,0,0,.11.67,1.33,1.33,0,0,0,.31.47,1.18,1.18,0,0,0,.47.28,2,2,0,0,0,.62.09,2.06,2.06,0,0,0,.62-.09,1.18,1.18,0,0,0,.47-.28,1.33,1.33,0,0,0,.31-.47,1.93,1.93,0,0,0,.1-.67V27.3Z"/><path class="cls-1" d="M97.64,27.3l2.14,5.38,2.14-5.38H103v6.59h-.86V31.32l.08-2.76-2.14,5.33h-.66l-2.14-5.32.08,2.75v2.57h-.86V27.3Z"/><path class="cls-1" d="M108.49,32.17h-2.74l-.62,1.72h-.89l2.5-6.59h.75l2.5,6.59h-.88ZM106,31.46h2.22l-1.11-3.09Z"/><path class="cls-1" d="M116.14,33.89h-.87L112,28.81v5.08h-.87V27.3H112l3.3,5.1V27.3h.86Z"/><path class="cls-1" d="M125.23,31.8a3.1,3.1,0,0,1-.23.87,2,2,0,0,1-.48.69,2.19,2.19,0,0,1-.74.45,3,3,0,0,1-1,.17,2.38,2.38,0,0,1-1-.22,2.31,2.31,0,0,1-.81-.61,2.89,2.89,0,0,1-.51-1,4.06,4.06,0,0,1-.18-1.25v-.66a4.06,4.06,0,0,1,.18-1.25,2.9,2.9,0,0,1,.52-1,2.41,2.41,0,0,1,.83-.62,2.77,2.77,0,0,1,1.1-.22,2.66,2.66,0,0,1,1,.17,2,2,0,0,1,1.2,1.15,3.06,3.06,0,0,1,.23.89h-.87a2.68,2.68,0,0,0-.15-.62,1.49,1.49,0,0,0-.29-.47,1.19,1.19,0,0,0-.45-.3,1.76,1.76,0,0,0-.64-.1,1.59,1.59,0,0,0-.77.17,1.55,1.55,0,0,0-.55.47,2.29,2.29,0,0,0-.34.74,4,4,0,0,0-.11,1v.67a4.37,4.37,0,0,0,.1.91,2.36,2.36,0,0,0,.31.74,1.52,1.52,0,0,0,.53.51,1.49,1.49,0,0,0,.75.18,2.07,2.07,0,0,0,.7-.1,1.21,1.21,0,0,0,.46-.29,1.1,1.1,0,0,0,.29-.46,2.67,2.67,0,0,0,.16-.62Z"/><path class="cls-1" d="M131.67,30.81a4.23,4.23,0,0,1-.19,1.33,2.91,2.91,0,0,1-.52,1,2.21,2.21,0,0,1-.83.63,2.74,2.74,0,0,1-2.15,0,2.21,2.21,0,0,1-.83-.63,2.94,2.94,0,0,1-.54-1,4.22,4.22,0,0,1-.2-1.33v-.42a4.27,4.27,0,0,1,.2-1.33,2.91,2.91,0,0,1,.54-1,2.35,2.35,0,0,1,.83-.63,2.61,2.61,0,0,1,1.06-.22,2.67,2.67,0,0,1,1.08.22,2.26,2.26,0,0,1,.83.63,2.9,2.9,0,0,1,.53,1,4.27,4.27,0,0,1,.19,1.33Zm-.86-.43a4.07,4.07,0,0,0-.12-1,2.31,2.31,0,0,0-.34-.76,1.54,1.54,0,0,0-.56-.46A1.65,1.65,0,0,0,129,28a1.6,1.6,0,0,0-.73.16,1.54,1.54,0,0,0-.56.46,2.32,2.32,0,0,0-.35.76,3.65,3.65,0,0,0-.13,1v.43a3.65,3.65,0,0,0,.13,1,2.11,2.11,0,0,0,.36.77,1.54,1.54,0,0,0,.56.46,1.6,1.6,0,0,0,.73.16,1.65,1.65,0,0,0,.75-.16,1.43,1.43,0,0,0,.55-.46,2.28,2.28,0,0,0,.35-.77,4.61,4.61,0,0,0,.11-1Z"/><path class="cls-1" d="M138,33a3.05,3.05,0,0,1-.26.3,2,2,0,0,1-.44.31,3.42,3.42,0,0,1-.67.24,3.71,3.71,0,0,1-.94.1,2.8,2.8,0,0,1-1.1-.21,2.32,2.32,0,0,1-.86-.62,2.85,2.85,0,0,1-.57-1,4.07,4.07,0,0,1-.2-1.32v-.51a4.86,4.86,0,0,1,.17-1.32,2.94,2.94,0,0,1,.51-1,2.29,2.29,0,0,1,.82-.62,2.88,2.88,0,0,1,1.13-.21,2.93,2.93,0,0,1,1,.15,2.32,2.32,0,0,1,.72.42,2.12,2.12,0,0,1,.47.64,2.72,2.72,0,0,1,.24.81h-.86a2.91,2.91,0,0,0-.16-.5,1.37,1.37,0,0,0-.29-.42,1.28,1.28,0,0,0-.45-.28,1.81,1.81,0,0,0-.65-.1,1.77,1.77,0,0,0-.79.16,1.69,1.69,0,0,0-.55.48,2.29,2.29,0,0,0-.32.76,4.4,4.4,0,0,0-.1,1v.52a3.56,3.56,0,0,0,.13,1,2.35,2.35,0,0,0,.38.76,1.61,1.61,0,0,0,.59.48,1.73,1.73,0,0,0,.76.16,3.45,3.45,0,0,0,.6-.05,1.83,1.83,0,0,0,.41-.12A.87.87,0,0,0,137,33a1.36,1.36,0,0,0,.17-.16V31.32h-1.51v-.71H138Z"/><path class="cls-1" d="M144.73,33.89h-.87l-3.29-5.08v5.08h-.87V27.3h.87l3.3,5.1V27.3h.86Z"/><path class="cls-1" d="M147.42,33.89h-.86V27.3h.86Z"/><path class="cls-1" d="M153.62,28h-2.1v5.87h-.86V28h-2.09V27.3h5.05Z"/><path class="cls-1" d="M155.75,33.89h-.86V27.3h.86Z"/><path class="cls-1" d="M159.73,32.74l1.87-5.44h.94l-2.42,6.59h-.76l-2.42-6.59h.93Z"/><path class="cls-1" d="M167.35,30.84h-2.83v2.34h3.29v.71h-4.15V27.3h4.1V28h-3.24v2.11h2.83Z"/><path class="cls-1" d="M175.25,32.17h-2.74l-.62,1.72H171l2.5-6.59h.75l2.5,6.59h-.88Zm-2.48-.71H175l-1.11-3.09Z"/><path class="cls-1" d="M182.9,33.89H182l-3.29-5.08v5.08h-.87V27.3h.87l3.3,5.1V27.3h.86Z"/><path class="cls-1" d="M184.66,33.89V27.3h1.85a3.22,3.22,0,0,1,1.18.22,2.59,2.59,0,0,1,.91.62,2.8,2.8,0,0,1,.58,1,3.71,3.71,0,0,1,.21,1.29v.39a3.7,3.7,0,0,1-.21,1.28,2.68,2.68,0,0,1-.59,1,2.55,2.55,0,0,1-.93.61,3.21,3.21,0,0,1-1.23.22Zm.87-5.87v5.16h.9a2.36,2.36,0,0,0,.92-.17,1.76,1.76,0,0,0,.66-.48,2.08,2.08,0,0,0,.4-.75,3.75,3.75,0,0,0,.13-1v-.41a3.4,3.4,0,0,0-.14-1,2.05,2.05,0,0,0-.39-.75,1.64,1.64,0,0,0-.64-.46,2.13,2.13,0,0,0-.86-.16Z"/><path class="cls-1" d="M193.45,33.89V27.3h2.13a4,4,0,0,1,.9.1,1.82,1.82,0,0,1,.67.32,1.37,1.37,0,0,1,.43.55,2.07,2.07,0,0,1,.14.79,1.33,1.33,0,0,1-.26.81,1.64,1.64,0,0,1-.71.55,1.84,1.84,0,0,1,.49.23,1.71,1.71,0,0,1,.36.35,1.78,1.78,0,0,1,.22.46,1.89,1.89,0,0,1,.08.53,2.1,2.1,0,0,1-.16.82,1.61,1.61,0,0,1-.44.59,1.86,1.86,0,0,1-.68.37,3.09,3.09,0,0,1-.89.12Zm.86-3.78h1.3a1.61,1.61,0,0,0,.51-.07,1.22,1.22,0,0,0,.39-.21.9.9,0,0,0,.25-.33,1.06,1.06,0,0,0,.09-.45,1,1,0,0,0-.31-.79,1.58,1.58,0,0,0-1-.24h-1.27Zm0,.7v2.37h1.42a1.82,1.82,0,0,0,.55-.08,1.27,1.27,0,0,0,.41-.24,1,1,0,0,0,.25-.37A1.3,1.3,0,0,0,197,32a1.49,1.49,0,0,0-.07-.49,1,1,0,0,0-.23-.38,1.08,1.08,0,0,0-.39-.24,1.91,1.91,0,0,0-.57-.08Z"/><path class="cls-1" d="M201.81,31.22h-1.54v2.67h-.86V27.3h2.16a2.54,2.54,0,0,1,1.7.51,1.85,1.85,0,0,1,.59,1.47,1.82,1.82,0,0,1-.33,1.08,2,2,0,0,1-.91.68l1.53,2.8v0h-.92Zm-1.54-.71h1.33a1.91,1.91,0,0,0,.61-.09,1.46,1.46,0,0,0,.44-.26,1.27,1.27,0,0,0,.26-.39,1.3,1.3,0,0,0,.09-.49,1.36,1.36,0,0,0-.09-.51,1,1,0,0,0-.25-.4,1.11,1.11,0,0,0-.45-.26,2,2,0,0,0-.64-.09h-1.3Z"/><path class="cls-1" d="M208.92,32.17h-2.74l-.61,1.72h-.89l2.49-6.59h.76l2.5,6.59h-.89Zm-2.48-.71h2.22l-1.11-3.09Z"/><path class="cls-1" d="M212.47,33.89h-.86V27.3h.86Z"/><path class="cls-1" d="M219.31,33.89h-.87l-3.29-5.08v5.08h-.86V27.3h.86l3.3,5.1V27.3h.86Z"/><path class="cls-1" d="M227.08,32.22a1.24,1.24,0,0,0-.07-.4.85.85,0,0,0-.25-.33,2.1,2.1,0,0,0-.48-.27,5.84,5.84,0,0,0-.76-.27,6,6,0,0,1-.88-.32,2.61,2.61,0,0,1-.67-.41,1.64,1.64,0,0,1-.42-.53,1.64,1.64,0,0,1,0-1.39,1.78,1.78,0,0,1,.45-.57,2,2,0,0,1,.7-.38,2.9,2.9,0,0,1,.91-.14,2.68,2.68,0,0,1,1,.17,2.29,2.29,0,0,1,.73.44,2,2,0,0,1,.45.64,1.93,1.93,0,0,1,.15.75h-.87a1.6,1.6,0,0,0-.08-.51,1,1,0,0,0-.27-.41,1.26,1.26,0,0,0-.45-.27,2,2,0,0,0-.64-.09,1.82,1.82,0,0,0-.6.08,1.19,1.19,0,0,0-.42.22,1,1,0,0,0-.25.34,1.16,1.16,0,0,0-.08.42.79.79,0,0,0,.09.38,1,1,0,0,0,.27.32,1.88,1.88,0,0,0,.47.27,5.75,5.75,0,0,0,.7.23,8,8,0,0,1,1,.35,2.61,2.61,0,0,1,.66.44,1.47,1.47,0,0,1,.39.55,1.67,1.67,0,0,1,.13.69,1.57,1.57,0,0,1-.62,1.28,2.43,2.43,0,0,1-.72.36,3.38,3.38,0,0,1-.93.12,3.05,3.05,0,0,1-.6-.06,2.17,2.17,0,0,1-.58-.17,2.09,2.09,0,0,1-.51-.28,1.95,1.95,0,0,1-.69-.88,2,2,0,0,1-.1-.61h.87a1.12,1.12,0,0,0,.49,1,1.41,1.41,0,0,0,.51.24,2.92,2.92,0,0,0,.61.07,1.65,1.65,0,0,0,1-.28A.9.9,0,0,0,227.08,32.22Z"/><path class="cls-1" d="M234.09,31.8a3.09,3.09,0,0,1-.22.87,2.38,2.38,0,0,1-.48.69,2.24,2.24,0,0,1-.75.45,2.87,2.87,0,0,1-1,.17,2.38,2.38,0,0,1-1.05-.22,2.23,2.23,0,0,1-.81-.61,2.9,2.9,0,0,1-.52-1,4.06,4.06,0,0,1-.18-1.25v-.66a3.77,3.77,0,0,1,.19-1.25,2.74,2.74,0,0,1,.52-1,2.32,2.32,0,0,1,.83-.62,2.72,2.72,0,0,1,1.09-.22,2.68,2.68,0,0,1,1,.17,2.09,2.09,0,0,1,.73.45,2.33,2.33,0,0,1,.47.7,2.77,2.77,0,0,1,.22.89h-.86a3.29,3.29,0,0,0-.16-.62,1.31,1.31,0,0,0-.28-.47,1.19,1.19,0,0,0-.45-.3,1.81,1.81,0,0,0-.65-.1,1.55,1.55,0,0,0-.76.17,1.59,1.59,0,0,0-.56.47,2.28,2.28,0,0,0-.33.74,4,4,0,0,0-.11,1v.67a3.79,3.79,0,0,0,.1.91,2.36,2.36,0,0,0,.31.74,1.49,1.49,0,0,0,.52.51,1.53,1.53,0,0,0,.76.18,2,2,0,0,0,.69-.1,1.17,1.17,0,0,0,.47-.29,1.34,1.34,0,0,0,.29-.46,3.29,3.29,0,0,0,.16-.62Z"/><path class="cls-1" d="M236.43,33.89h-.86V27.3h.86Z"/><path class="cls-1" d="M241.94,30.84h-2.83v2.34h3.29v.71h-4.15V27.3h4.11V28h-3.25v2.11h2.83Z"/><path class="cls-1" d="M248.74,33.89h-.87l-3.29-5.08v5.08h-.87V27.3h.87l3.3,5.1V27.3h.86Z"/><path class="cls-1" d="M255.31,31.8a3.09,3.09,0,0,1-.22.87,2.38,2.38,0,0,1-.48.69,2.24,2.24,0,0,1-.75.45,2.88,2.88,0,0,1-1,.17,2.44,2.44,0,0,1-1.05-.22,2.28,2.28,0,0,1-.8-.61,2.9,2.9,0,0,1-.52-1,4.06,4.06,0,0,1-.18-1.25v-.66a4.06,4.06,0,0,1,.18-1.25,2.92,2.92,0,0,1,.53-1,2.32,2.32,0,0,1,.83-.62,2.72,2.72,0,0,1,1.09-.22,2.68,2.68,0,0,1,1,.17,2,2,0,0,1,.72.45,2.18,2.18,0,0,1,.48.7,3.06,3.06,0,0,1,.22.89h-.86a3.29,3.29,0,0,0-.16-.62,1.47,1.47,0,0,0-.28-.47,1.19,1.19,0,0,0-.45-.3,1.81,1.81,0,0,0-.65-.1,1.55,1.55,0,0,0-.76.17,1.59,1.59,0,0,0-.56.47,2.28,2.28,0,0,0-.33.74,3.54,3.54,0,0,0-.11,1v.67a3.79,3.79,0,0,0,.1.91,2.14,2.14,0,0,0,.31.74,1.41,1.41,0,0,0,1.27.69,2,2,0,0,0,.7-.1,1.17,1.17,0,0,0,.47-.29,1.34,1.34,0,0,0,.29-.46,3.29,3.29,0,0,0,.16-.62Z"/><path class="cls-1" d="M260.42,30.84h-2.83v2.34h3.29v.71h-4.15V27.3h4.1V28h-3.24v2.11h2.83Z"/><path class="cls-1" d="M265.67,32.22a1.25,1.25,0,0,0-.06-.4.85.85,0,0,0-.25-.33,2.1,2.1,0,0,0-.48-.27,5.84,5.84,0,0,0-.76-.27,5.61,5.61,0,0,1-.88-.32,2.61,2.61,0,0,1-.67-.41,1.64,1.64,0,0,1-.42-.53,1.64,1.64,0,0,1,0-1.39,1.54,1.54,0,0,1,.45-.57,2,2,0,0,1,.7-.38,2.9,2.9,0,0,1,.91-.14,2.68,2.68,0,0,1,1,.17,2.29,2.29,0,0,1,.73.44,2.18,2.18,0,0,1,.45.64,1.93,1.93,0,0,1,.15.75h-.87a1.36,1.36,0,0,0-.09-.51.93.93,0,0,0-.26-.41,1.26,1.26,0,0,0-.45-.27,2,2,0,0,0-.64-.09,1.82,1.82,0,0,0-.6.08,1.19,1.19,0,0,0-.42.22.91.91,0,0,0-.25.34,1.16,1.16,0,0,0-.08.42.79.79,0,0,0,.09.38,1,1,0,0,0,.27.32,1.88,1.88,0,0,0,.47.27,5.75,5.75,0,0,0,.7.23,8,8,0,0,1,1,.35A2.61,2.61,0,0,1,266,31a1.47,1.47,0,0,1,.39.55,1.67,1.67,0,0,1,.13.69,1.57,1.57,0,0,1-.62,1.28,2.43,2.43,0,0,1-.72.36,3.38,3.38,0,0,1-.93.12,3.08,3.08,0,0,1-.61-.06,2.21,2.21,0,0,1-.57-.17,2.09,2.09,0,0,1-.51-.28,1.78,1.78,0,0,1-.69-.88,1.74,1.74,0,0,1-.1-.61h.87a1.12,1.12,0,0,0,.49,1,1.34,1.34,0,0,0,.51.24,2.92,2.92,0,0,0,.61.07,1.65,1.65,0,0,0,1-.28A.92.92,0,0,0,265.67,32.22Z"/><rect class="cls-2" x="63.21" y="39.98" width="48.39" height="2.44"/><rect class="cls-3" x="114.74" y="39.98" width="48.39" height="2.44"/><rect class="cls-4" x="166.27" y="39.98" width="48.39" height="2.44"/><rect class="cls-5" x="217.8" y="39.98" width="48.63" height="2.44"/></svg>